<?xml version="1.0" standalone="no"?>
<!DOCTYPE svg PUBLIC "-//W3C//DTD SVG 20010904//EN"
 "http://www.w3.org/TR/2001/REC-SVG-20010904/DTD/svg10.dtd">
<svg version="1.0" xmlns="http://www.w3.org/2000/svg"
 width="613.000000pt" height="407.000000pt" viewBox="0 0 613.000000 407.000000"
 preserveAspectRatio="xMidYMid meet">

<g transform="translate(0.000000,407.000000) scale(0.100000,-0.100000)"
fill="#000000" stroke="none">
<path d="M3265 3274 c-231 -35 -391 -93 -551 -199 -154 -103 -279 -267 -319
-421 -30 -117 -14 -277 38 -383 30 -61 116 -152 189 -201 68 -45 101 -55 42
-12 -175 127 -223 364 -118 575 16 32 61 86 115 139 72 71 105 95 181 132 158
78 337 116 535 116 76 0 195 -14 225 -25 12 -5 32 24 82 114 36 66 66 124 66
129 0 18 -124 33 -290 37 -91 2 -178 1 -195 -1z"/>
<path d="M3143 2820 c-180 -25 -325 -89 -418 -184 -81 -83 -117 -158 -123
-258 -2 -42 1 -98 8 -127 15 -65 78 -152 138 -192 l47 -32 -37 39 c-79 84
-101 200 -54 299 43 93 167 184 296 216 58 15 320 20 375 7 29 -6 31 -5 88 97
31 57 57 108 57 113 0 21 -274 37 -377 22z"/>
<path d="M3080 2440 c-174 -21 -300 -118 -300 -231 0 -41 39 -127 70 -154 l23
-20 -16 30 c-71 139 22 244 230 261 43 3 104 2 136 -4 l58 -9 30 51 c16 28 29
54 29 58 0 15 -176 27 -260 18z"/>
<path d="M2080 1817 c-26 -13 -36 -43 -26 -82 7 -28 67 -42 109 -26 24 9 27
16 27 56 0 40 -3 47 -26 55 -33 13 -54 12 -84 -3z"/>
<path d="M2880 1639 c-67 -27 -110 -110 -110 -214 0 -91 14 -139 54 -182 27
-29 41 -36 82 -40 35 -4 60 0 82 11 l32 17 0 -35 c0 -54 -29 -81 -87 -81 -26
0 -64 4 -85 9 -39 9 -48 1 -62 -55 -5 -25 -3 -27 41 -38 25 -7 78 -12 118 -12
104 0 137 17 176 91 21 42 23 59 27 235 1 105 8 202 14 217 22 57 -37 99 -88
63 -19 -13 -25 -12 -60 5 -41 21 -94 25 -134 9z m121 -99 c17 -10 19 -22 19
-109 0 -67 -4 -102 -12 -108 -26 -20 -58 -21 -81 -3 -19 16 -22 27 -22 98 0
117 31 156 96 122z"/>
<path d="M4080 1643 c-14 -2 -49 -11 -78 -19 -41 -11 -52 -19 -48 -30 3 -9 6
-21 6 -28 0 -7 6 -20 13 -29 11 -14 18 -15 72 -2 33 8 66 15 73 15 19 0 52
-38 52 -60 0 -18 -7 -20 -57 -20 -69 0 -131 -28 -156 -69 -10 -17 -17 -50 -17
-81 0 -46 4 -56 34 -86 45 -45 121 -50 182 -13 31 19 32 19 71 -3 45 -25 62
-21 83 16 11 22 12 31 2 46 -8 13 -12 63 -12 137 0 143 -13 177 -80 211 -41
21 -81 25 -140 15z m90 -287 c0 -61 -78 -92 -102 -41 -9 19 -8 29 6 50 13 20
25 25 56 25 39 0 40 -1 40 -34z"/>
<path d="M1351 1631 c-11 -7 -6 -42 30 -197 53 -231 57 -236 156 -232 l68 3
12 70 c6 39 17 109 23 157 7 49 15 86 20 83 4 -2 10 -30 13 -62 15 -143 30
-216 48 -234 27 -27 144 -27 157 -1 17 31 104 401 97 412 -9 15 -112 13 -118
-2 -2 -7 -17 -82 -33 -165 -16 -84 -31 -153 -34 -153 -4 0 -17 71 -29 158 -13
86 -28 160 -35 164 -15 10 -118 10 -134 -1 -9 -5 -21 -63 -34 -157 -12 -82
-24 -153 -28 -157 -4 -4 -19 59 -35 140 -15 81 -32 156 -37 166 -9 19 -81 24
-107 8z"/>
<path d="M2027 1633 c-4 -3 -7 -24 -7 -46 0 -31 4 -40 21 -44 32 -9 39 -43 39
-199 l0 -145 63 3 62 3 3 150 c5 252 -8 285 -116 285 -32 0 -62 -3 -65 -7z"/>
<path d="M2320 1420 l0 -221 63 3 62 3 5 150 5 150 29 14 c53 25 60 10 67
-140 8 -160 5 -144 25 -163 18 -19 63 -21 99 -4 20 9 25 17 20 32 -4 12 -9 92
-13 178 -7 156 -7 157 -36 187 -26 27 -37 31 -81 31 -38 0 -62 -6 -87 -24
l-35 -23 -21 23 c-15 18 -31 24 -61 24 l-41 0 0 -220z"/>
<path d="M3260 1420 l0 -221 63 3 62 3 5 150 5 150 28 13 c25 12 31 12 47 -3
17 -16 20 -35 22 -164 l3 -146 63 -3 62 -3 0 150 0 150 30 16 c22 11 35 13 49
6 16 -9 19 -26 23 -145 3 -114 6 -138 22 -155 21 -24 62 -27 101 -9 20 9 25
17 20 32 -4 12 -10 91 -14 176 -7 170 -17 204 -67 216 -41 10 -110 -2 -143
-25 l-31 -23 -31 26 c-41 35 -102 35 -153 1 l-38 -26 -20 26 c-15 20 -28 25
-64 25 l-44 0 0 -220z"/>
<path d="M4410 1420 l0 -221 63 3 62 3 5 150 5 150 28 13 c61 29 77 -5 77
-161 0 -131 11 -157 63 -156 72 1 71 -1 68 161 -3 173 -10 211 -47 249 -23 25
-36 29 -79 29 -37 0 -60 -6 -85 -24 l-35 -24 -22 24 c-16 18 -33 24 -63 24
l-40 0 0 -220z"/>
<path d="M1681 863 c1 -27 4 -38 6 -26 2 13 13 24 26 26 l22 4 -22 2 c-33 2
-29 29 5 34 25 4 25 4 -5 6 -33 1 -33 1 -32 -46z"/>
<path d="M1861 863 c1 -27 4 -38 6 -25 2 12 8 22 12 22 5 0 16 -10 25 -22 16
-23 16 -23 6 -1 -7 14 -7 24 0 28 5 3 10 15 10 26 0 14 -7 19 -30 19 -29 0
-30 -1 -29 -47z m49 22 c0 -8 -9 -15 -20 -15 -11 0 -20 7 -20 15 0 8 9 15 20
15 11 0 20 -7 20 -15z"/>
<path d="M2040 865 c0 -25 4 -45 9 -45 5 0 7 9 4 19 -4 15 1 20 24 24 l28 4
-27 2 c-17 0 -28 7 -28 15 0 8 12 17 28 19 25 4 25 4 -5 6 -33 1 -33 0 -33
-44z"/>
<path d="M2231 863 c1 -27 4 -38 6 -26 2 13 13 24 26 26 l22 4 -22 2 c-13 0
-23 7 -23 15 0 8 10 17 23 19 19 4 18 4 -5 6 -27 1 -28 -1 -27 -46z"/>
<path d="M2682 863 c1 -37 2 -40 5 -15 2 17 8 32 13 32 5 0 7 7 4 15 -12 31
-24 13 -22 -32z"/>
<path d="M2756 894 c-4 -9 -4 -19 -1 -22 3 -3 6 1 6 9 1 8 5 -4 9 -26 l7 -40
2 48 c1 46 -11 63 -23 31z"/>
<path d="M2938 904 c-4 -3 -1 -13 7 -21 21 -20 19 -33 -5 -33 -14 0 -18 5 -14
18 3 9 -2 6 -10 -8 -18 -30 -21 -49 -4 -32 16 16 55 15 61 0 2 -7 7 -11 10 -8
3 3 -5 24 -17 48 -12 24 -25 40 -28 36z"/>
<path d="M3112 898 c-20 -20 -12 -78 11 -78 7 0 7 4 -1 12 -18 18 -15 55 6 67
9 6 12 11 7 11 -6 0 -16 -5 -23 -12z"/>
<path d="M3313 865 c0 -27 2 -38 4 -22 2 15 2 37 0 50 -2 12 -4 0 -4 -28z"/>
<path d="M3450 900 c0 -5 3 -10 8 -10 4 0 18 -16 31 -35 13 -19 27 -35 32 -35
5 0 8 21 7 48 l-1 47 -4 -43 -4 -43 -30 40 c-30 42 -39 49 -39 31z"/>
<path d="M3680 904 c0 -3 7 -12 15 -20 21 -21 19 -34 -5 -34 -14 0 -18 5 -14
18 3 9 -2 4 -11 -11 -9 -16 -14 -31 -11 -35 3 -3 6 0 6 6 0 7 14 12 30 12 17
0 30 -5 30 -12 0 -6 3 -8 7 -5 8 8 -27 87 -39 87 -4 0 -8 -3 -8 -6z"/>
<path d="M3847 902 c6 -4 13 -25 16 -47 l4 -40 1 42 c2 30 7 43 20 46 9 3 1 5
-18 6 -19 0 -30 -3 -23 -7z"/>
<path d="M4023 865 c0 -27 2 -38 4 -22 2 15 2 37 0 50 -2 12 -4 0 -4 -28z"/>
<path d="M4162 898 c-18 -18 -15 -54 6 -69 14 -11 15 -11 5 1 -19 20 -16 57 5
69 9 6 12 11 7 11 -6 0 -16 -5 -23 -12z"/>
<path d="M4225 890 c15 -17 16 -24 6 -48 -10 -25 -10 -26 4 -8 8 11 15 24 15
29 0 16 -21 47 -32 47 -6 0 -3 -9 7 -20z"/>
<path d="M4371 863 l2 -48 6 40 6 40 23 -37 c13 -21 28 -38 33 -38 5 0 8 21 8
48 l-2 47 -6 -40 -6 -40 -25 37 c-14 21 -28 38 -32 38 -5 0 -7 -21 -7 -47z"/>
<path d="M3170 855 c6 -8 8 -20 4 -27 -5 -10 -4 -10 6 -1 14 13 7 43 -11 43
-8 0 -8 -4 1 -15z"/>
<path d="M2720 830 c0 -5 5 -10 10 -10 6 0 10 5 10 10 0 6 -4 10 -10 10 -5 0
-10 -4 -10 -10z"/>
</g>
</svg>
