<?xml version="1.0" standalone="no"?>
<!DOCTYPE svg PUBLIC "-//W3C//DTD SVG 20010904//EN"
 "http://www.w3.org/TR/2001/REC-SVG-20010904/DTD/svg10.dtd">
<svg version="1.0" xmlns="http://www.w3.org/2000/svg"
 width="357.000000pt" height="91.000000pt" viewBox="0 0 357.000000 91.000000"
 preserveAspectRatio="xMidYMid meet">

<g transform="translate(0.000000,91.000000) scale(0.100000,-0.100000)"
fill="#000000" stroke="none">
<path d="M800 847 c-20 -10 -25 -20 -25 -52 0 -34 4 -42 29 -54 21 -10 39 -11
65 -5 34 9 36 11 39 57 3 43 1 48 -23 57 -35 13 -55 12 -85 -3z"/>
<path d="M1606 670 c-69 -21 -116 -107 -116 -215 0 -91 14 -139 54 -182 39
-43 100 -54 159 -30 l37 16 0 -32 c0 -71 -56 -100 -151 -77 -47 12 -53 11 -66
-6 -7 -10 -13 -30 -13 -45 0 -24 6 -30 38 -38 20 -6 72 -11 116 -11 104 0 145
22 178 94 20 46 23 69 26 236 1 102 8 197 14 212 22 57 -37 99 -88 63 -19 -13
-25 -12 -60 5 -40 21 -80 24 -128 10z m115 -100 c17 -10 19 -22 19 -109 0 -67
-4 -102 -12 -108 -26 -20 -58 -21 -81 -3 -20 16 -22 27 -22 103 0 69 3 89 19
106 21 23 47 27 77 11z"/>
<path d="M2761 665 c-82 -19 -92 -27 -80 -67 5 -18 12 -35 16 -39 5 -4 35 -1
68 7 70 16 100 12 115 -17 20 -36 6 -49 -52 -49 -64 0 -127 -29 -151 -69 -10
-17 -17 -50 -17 -81 0 -46 4 -56 34 -86 24 -24 44 -34 68 -35 59 -2 82 2 114
22 30 18 31 18 72 -2 48 -24 62 -22 82 15 11 22 12 31 2 46 -8 13 -12 63 -12
137 0 92 -4 126 -18 153 -34 68 -122 92 -241 65z m127 -282 c6 -57 -77 -89
-100 -38 -9 19 -7 29 6 50 14 22 24 26 54 23 33 -3 37 -6 40 -35z"/>
<path d="M71 661 c-11 -7 -6 -42 30 -197 52 -225 57 -234 146 -234 32 0 63 4
70 8 6 4 21 72 32 151 12 80 23 147 26 149 7 8 13 -17 30 -141 9 -65 19 -125
22 -134 8 -21 47 -33 108 -33 42 0 56 4 63 17 16 31 103 403 97 413 -9 15
-112 12 -118 -2 -2 -7 -17 -82 -33 -165 -16 -84 -32 -149 -35 -145 -4 4 -18
75 -30 159 -20 135 -25 152 -43 157 -32 9 -109 7 -124 -3 -9 -5 -21 -63 -34
-157 -12 -82 -24 -153 -28 -157 -4 -4 -17 47 -29 115 -12 68 -28 141 -34 163
-12 38 -14 40 -57 43 -25 1 -51 -2 -59 -7z"/>
<path d="M747 663 c-4 -3 -7 -24 -7 -45 0 -32 4 -40 25 -48 14 -5 26 -11 27
-12 0 -2 4 -75 7 -163 l6 -160 60 0 60 0 3 166 c3 185 -7 235 -48 256 -26 13
-122 18 -133 6z"/>
<path d="M1042 453 l3 -218 60 0 60 0 5 150 5 150 27 13 c20 9 33 10 47 3 17
-9 19 -25 23 -145 3 -114 6 -138 22 -155 21 -24 62 -27 101 -9 20 9 25 16 20
32 -4 12 -9 84 -12 161 -2 77 -9 153 -15 168 -26 67 -113 88 -187 45 l-38 -21
-21 21 c-15 15 -34 22 -62 22 l-40 0 2 -217z"/>
<path d="M1982 453 l3 -218 60 0 60 0 5 150 c5 147 5 150 30 162 20 10 29 10
45 -1 18 -12 20 -27 25 -162 l5 -149 60 0 60 0 3 147 3 148 29 15 c22 11 35
13 49 5 17 -9 19 -24 23 -144 2 -115 6 -137 22 -155 21 -24 62 -27 101 -9 20
9 25 17 20 32 -4 12 -10 91 -14 176 -7 170 -17 204 -67 216 -41 10 -110 -2
-143 -25 l-31 -23 -31 26 c-40 34 -99 35 -153 2 l-40 -24 -19 24 c-14 19 -28
24 -63 24 l-44 0 2 -217z"/>
<path d="M3132 453 l3 -218 60 0 60 0 5 150 5 150 28 13 c61 29 77 -5 77 -167
0 -102 3 -120 18 -134 21 -19 60 -22 94 -7 23 11 23 14 20 143 -3 169 -14 226
-52 262 -26 25 -34 27 -83 23 -33 -3 -65 -13 -83 -25 l-30 -21 -21 24 c-16 18
-32 24 -62 24 l-41 0 2 -217z"/>
</g>
</svg>
