<?xml version="1.0" standalone="no"?>
<!DOCTYPE svg PUBLIC "-//W3C//DTD SVG 20010904//EN"
 "http://www.w3.org/TR/2001/REC-SVG-20010904/DTD/svg10.dtd">
<svg version="1.0" xmlns="http://www.w3.org/2000/svg"
 width="148.000000pt" height="136.000000pt" viewBox="0 0 148.000000 136.000000"
 preserveAspectRatio="xMidYMid meet">

<g transform="translate(0.000000,136.000000) scale(0.100000,-0.100000)"
fill="#000000" stroke="none">
<path d="M935 1303 c-83 -10 -237 -48 -303 -74 -274 -109 -448 -264 -533 -475
-59 -145 -51 -345 19 -464 37 -64 117 -147 186 -192 70 -45 97 -51 38 -8 -96
69 -159 187 -169 316 -14 174 79 346 252 469 158 113 384 175 639 175 65 0
176 -13 218 -26 12 -4 32 24 82 114 36 66 66 124 66 130 0 29 -346 54 -495 35z"/>
<path d="M845 853 c-192 -25 -342 -88 -439 -185 -36 -37 -75 -88 -92 -123 -26
-55 -29 -69 -29 -165 0 -127 19 -176 102 -258 61 -59 92 -71 44 -17 -55 63
-66 93 -66 180 0 97 19 138 94 208 97 91 241 137 426 136 50 0 113 -4 140 -9
38 -6 54 -5 65 6 19 17 116 201 110 207 -18 17 -269 31 -355 20z"/>
<path d="M755 470 c-228 -36 -339 -160 -275 -307 22 -51 73 -114 56 -68 -34
86 -30 128 16 180 49 57 122 78 258 78 63 -1 124 -3 135 -5 14 -2 26 9 47 47
15 28 28 53 28 56 0 17 -193 31 -265 19z"/>
</g>
</svg>
